<?xml version="1.0" encoding="UTF-8"?>
<svg id="Layer_1" data-name="Layer 1" xmlns="http://www.w3.org/2000/svg" version="1.1" xmlns:xlink="http://www.w3.org/1999/xlink" viewBox="0 0 1000 923.6">
  <defs>
    <style>
      .cls-1 {
        fill: #069b4f;
      }

      .cls-1, .cls-2, .cls-3, .cls-4, .cls-5, .cls-6, .cls-7, .cls-8, .cls-9, .cls-10, .cls-11, .cls-12, .cls-13, .cls-14, .cls-15, .cls-16, .cls-17, .cls-18 {
        stroke-width: 0px;
      }

      .cls-2 {
        fill: #059f50;
      }

      .cls-3 {
        fill: #06994e;
      }

      .cls-4 {
        fill: #0a9c4f;
      }

      .cls-5 {
        fill: #09a251;
      }

      .cls-6 {
        fill: #0da352;
      }

      .cls-7 {
        fill: #099e50;
      }

      .cls-8 {
        fill: none;
      }

      .cls-9 {
        fill: #07954e;
      }

      .cls-10 {
        fill: #069d50;
      }

      .cls-11 {
        fill: #06974f;
      }

      .cls-12 {
        fill: #0a944e;
      }

      .cls-13 {
        fill: #0da351;
      }

      .cls-14 {
        fill: #0a964f;
      }

      .cls-19 {
        clip-path: url(#clippath);
      }

      .cls-15 {
        fill: #05a150;
      }

      .cls-16 {
        fill: #0a9a4e;
      }

      .cls-17 {
        fill: #09a051;
      }

      .cls-18 {
        fill: #09a250;
      }
    </style>
    <clipPath id="clippath">
      <path class="cls-8" d="M112.1,920.9c1.9-11.8,4.9-23.4,8.7-34.9,16.9-50.9,47.6-92.5,86.7-128.3,37.7-34.6,80.8-60.9,127.7-81.3,29.5-12.8,60.2-22.1,91.5-28.7,25.4-5.3,51.2-8,77.1-8.8,7-.5,13.9-.5,20.9,0,10,.6,20,1.3,30,2.2,20.1,1.8,39.9,5.3,59.5,10.2,36.7,9.1,71.6,22.9,104.6,41.5,35,19.8,66.6,43.8,93.8,73.6,23.1,25.3,42.2,53,56.2,84.3,10.1,22.6,17,46,20.5,70.1h109.2c.1-7.8-1.5-15.3-2.1-23-1.3-17.1-5.1-33.6-9.8-49.9-8.2-29.1-20.8-56.5-36.3-82.5-16.2-27.2-35.9-51.6-57.5-74.6-6.3-6.7-13.3-12.7-20-19-9.7-9.1-19.8-17.8-30.4-25.8-18.4-14-37.5-26.8-57.6-38.4-25.2-14.6-51.2-27.4-78.5-37.6-8.2-3.1-16.3-6.3-24.3-9.4,80.9-59.4,125.4-138.7,131.5-239.1,0-3.6-.7-7.2.7-10.6-1.1-1.5-1-3.2-.9-4.9.9-14.7-1-29.2-3.1-43.6-2.8-19-7.4-37.6-13.9-55.8-13.7-38.5-34.3-72.9-61.6-103.2-14.7-16.3-30.9-31.2-49-43.9-27.6-19.3-57.5-34.2-89.7-44-27.3-8.3-55.5-12-84-12.9-6.6-.2-13.1.8-19.6.8-9.7,0-19.3,1.1-28.7,2.6-23.3,3.6-46,9.6-68.1,18.2-34.5,13.5-65.2,32.9-92.4,57.6-33.4,30.3-58.8,66.4-76.4,108-13.7,32.4-21.3,66.3-23.7,101.2-.9,13.6-.6,27.4.6,41.1,1.6,18.7,4.6,37,9.3,55.2,13.7,52.5,40.4,97.7,77.8,136.6,11.4,11.8,24.2,22.2,37.7,32.4-1.9.6-3.4,1.1-4.8,1.5-36.4,12.2-71.6,27-104.9,46.1-39.3,22.5-75.4,49.1-107.2,81.4-24.2,24.5-45.5,51.3-62.9,81.1-24.3,41.5-40.4,85.9-45.4,133.8-.7,6.9-1.2,13.9-1.6,20.8h110.5ZM316.4,399c-6.6-16-11.2-32.6-14.2-49.6-1.2-6.8-1.2-13.9-2.2-20.9-.1-.9.5-1.9.8-2.9-.7-7-.7-14,0-21,.9-30.2,9.7-58.3,23.3-84.9,11.6-22.6,27.4-42.2,46.3-59.1,14.7-13.1,31.2-24,49.1-32.3,19.9-9.2,40.6-15.8,62.6-18.2,11.6-1.2,23.1-2.5,34.7-1.8,42.1,2.3,80.8,14.8,115.2,39.8,19.7,14.4,36.6,31.4,50.2,51.6,14.4,21.4,25.1,44.6,30.5,70.1,2.5,11.9,5.1,23.7,5.3,35.9,1.5,7.7,1.6,15.4,0,23.1-1.3,26-7.5,50.7-17.9,74.5-12.3,28-30.5,51.8-53.2,72.1-25.6,22.9-55.5,38.2-88.8,46.5-21.7,5.4-43.9,6.9-66.1,5.1-23.3-1.9-45.8-7.7-67.4-17.3-27.2-12.2-50.8-29.4-70.7-51.3-15.9-17.6-28.5-37.4-37.6-59.4Z"/>
    </clipPath>
  </defs>
  <g class="cls-19">
    <polygon class="cls-7" points="299.9 290 382.8 528.9 299.9 528.9 299.9 290"/>
    <polygon class="cls-10" points="326.5 107.8 472.7 528.9 382.8 528.9 299.9 290 299.9 107.8 326.5 107.8"/>
    <polygon class="cls-4" points="416.4 107.8 562.6 528.9 472.7 528.9 326.5 107.8 416.4 107.8"/>
    <polygon class="cls-1" points="506.3 107.8 652.5 528.9 562.6 528.9 416.4 107.8 506.3 107.8"/>
    <polygon class="cls-16" points="596.1 107.8 719.7 463.6 719.7 528.9 652.5 528.9 506.3 107.8 596.1 107.8"/>
    <polygon class="cls-3" points="686 107.8 719.7 204.7 719.7 463.6 596.1 107.8 686 107.8"/>
    <polygon class="cls-11" points="719.7 204.7 686 107.8 719.7 107.8 719.7 204.7"/>
    <polygon class="cls-6" points="1.6 880.5 15.7 920.9 1.6 920.9 1.6 880.5"/>
    <polygon class="cls-13" points="1.6 828.7 33.6 920.9 15.7 920.9 1.6 880.5 1.6 828.7"/>
    <polygon class="cls-5" points="1.6 777 51.6 920.9 33.6 920.9 1.6 828.7 1.6 777"/>
    <polygon class="cls-18" points="1.6 725.2 69.6 920.9 51.6 920.9 1.6 777 1.6 725.2"/>
    <polygon class="cls-18" points="1.6 466.3 159.5 920.9 69.6 920.9 1.6 725.2 1.6 466.3"/>
    <polygon class="cls-15" points="1.6 207.5 249.4 920.9 159.5 920.9 1.6 466.3 1.6 207.5"/>
    <polygon class="cls-17" points="1.6 97.5 47.7 81.5 339.2 920.9 249.4 920.9 1.6 207.5 1.6 97.5"/>
    <polygon class="cls-2" points="47.7 81.5 128 53.6 429.1 920.9 339.2 920.9 47.7 81.5"/>
    <polygon class="cls-7" points="128 53.6 208.2 25.8 519 920.9 429.1 920.9 128 53.6"/>
    <polygon class="cls-10" points="208.2 25.8 275.2 2.5 290 2.5 608.9 920.9 519 920.9 208.2 25.8"/>
    <polygon class="cls-4" points="379.8 2.5 698.7 920.9 608.9 920.9 290 2.5 379.8 2.5"/>
    <polygon class="cls-1" points="469.7 2.5 788.6 920.9 698.7 920.9 379.8 2.5 469.7 2.5"/>
    <polygon class="cls-16" points="559.6 2.5 878.5 920.9 788.6 920.9 469.7 2.5 559.6 2.5"/>
    <polygon class="cls-3" points="649.5 2.5 968.4 920.9 878.5 920.9 559.6 2.5 649.5 2.5"/>
    <polygon class="cls-11" points="739.3 2.5 998.5 748.9 998.5 920.9 968.4 920.9 649.5 2.5 739.3 2.5"/>
    <polygon class="cls-14" points="829.2 2.5 998.5 490 998.5 748.9 739.3 2.5 829.2 2.5"/>
    <polygon class="cls-9" points="919.1 2.5 998.5 231.2 998.5 490 829.2 2.5 919.1 2.5"/>
    <polygon class="cls-12" points="998.5 231.2 919.1 2.5 998.5 2.5 998.5 231.2"/>
  </g>
</svg>